<svg version="1.1" id="Layer_1" xmlns="http://www.w3.org/2000/svg" xmlns:xlink="http://www.w3.org/1999/xlink" x="0px" y="0px"
	 width="100%" viewBox="0 0 600 600" enable-background="new 0 0 600 600" xml:space="preserve">
<path fill="#000000" opacity="1.000000" stroke="none" 
	d="
M106.000000,601.000000 
	C71.017349,601.000000 36.034695,601.000000 1.026020,601.000000 
	C1.026020,401.116486 1.026020,201.232941 1.026020,1.000000 
	C60.020435,1.000000 119.041557,1.000000 178.820587,1.301458 
	C178.052505,4.880359 175.436279,8.084617 175.210403,11.449335 
	C174.598267,20.568382 174.634109,29.778891 175.215759,38.901951 
	C175.398911,41.774651 177.434525,45.548847 179.805374,47.087456 
	C190.552383,54.061993 201.722443,60.384682 213.000259,67.096786 
	C213.000259,71.530098 213.113068,76.360451 212.924393,81.178993 
	C212.874512,82.453308 212.223648,84.394157 211.289276,84.830208 
	C205.808533,87.388023 200.161926,89.590469 194.062378,92.124130 
	C194.062378,85.261909 194.062378,78.712898 194.062378,71.084389 
	C187.897461,73.759186 182.413208,75.915344 177.186005,78.576424 
	C175.999924,79.180229 175.135437,81.521088 175.096069,83.086861 
	C174.891037,91.242554 174.935669,99.406830 175.019547,107.566818 
	C175.095078,114.915848 177.791641,116.532463 184.319290,113.208138 
	C197.306549,106.594101 210.275681,99.944427 223.239502,93.284508 
	C227.811981,90.935486 232.035309,88.292282 232.007584,82.241699 
	C231.973267,74.747200 232.272049,67.236099 231.825012,59.768196 
	C231.699051,57.663750 229.943726,54.908863 228.115692,53.778763 
	C218.146469,47.615715 207.855743,41.974224 197.847260,35.871792 
	C196.138931,34.830181 194.362228,32.516228 194.173462,30.633980 
	C193.665726,25.571259 194.000000,20.424088 194.000000,15.292366 
	C200.907959,14.802125 207.346252,14.345215 214.177521,13.860417 
	C214.177521,20.391729 214.177521,26.152979 214.177521,31.866999 
	C220.609451,31.079536 226.699570,30.333920 233.163300,29.542564 
	C231.928009,19.946497 235.482330,10.033720 230.000000,1.000000 
	C233.030594,1.000000 236.061188,1.000000 239.877960,1.377855 
	C240.443039,3.852779 240.291458,5.960028 239.986115,8.044759 
	C239.390015,12.114658 241.205582,13.304301 245.099487,13.070647 
	C250.003983,12.776354 254.939545,12.999683 259.500244,12.999683 
	C259.500244,36.664982 259.500244,59.686043 259.500244,83.214401 
	C265.544952,82.387459 271.596985,81.559517 277.796295,80.711418 
	C278.773071,57.833160 276.697266,34.963139 279.183868,11.833485 
	C285.646088,11.833485 291.728394,11.833485 298.000000,11.833485 
	C298.000000,7.957286 298.000000,4.478643 298.000000,1.000000 
	C303.022095,1.000000 308.044189,1.000000 313.847809,1.329203 
	C306.972809,27.272823 299.316284,52.887241 291.559296,78.837799 
	C298.382507,78.837799 304.509033,78.837799 310.681519,78.837799 
	C311.946045,74.142395 313.181091,69.556267 314.382080,65.096771 
	C320.007996,65.415825 325.292938,65.406609 330.472290,66.141510 
	C333.007233,66.501190 336.453369,66.636040 336.185120,71.221069 
	C336.032990,73.821442 337.285217,76.534203 338.070587,79.146561 
	C338.469513,80.473480 339.019257,82.609520 339.869293,82.808937 
	C345.786285,84.196991 351.799866,85.173058 358.540619,86.421616 
	C357.839539,84.874359 357.498199,84.325012 357.333130,83.726997 
	C351.611084,62.997696 345.871552,42.273098 340.217316,21.525270 
	C338.361450,14.715338 336.732635,7.843518 335.000000,1.000000 
	C344.687561,1.000000 354.375122,1.000000 364.531525,1.455192 
	C365.333679,11.484900 365.881805,21.057766 365.955322,30.634275 
	C366.105499,50.191277 366.000336,69.750237 366.000336,89.155167 
	C372.881958,91.474907 378.673157,93.427078 385.181488,95.620987 
	C385.181488,67.810989 385.181488,40.935459 385.181488,13.961342 
	C392.031494,14.454356 398.380188,14.911289 404.784241,15.372207 
	C404.784241,25.600731 404.784241,35.690411 404.784241,46.297962 
	C399.369598,45.310436 394.245148,44.375835 387.712524,43.184406 
	C388.379242,47.795063 388.399963,52.143192 389.690613,56.074406 
	C393.532501,67.776543 398.346344,79.172935 401.882599,90.958183 
	C405.231903,102.120300 410.070282,111.564011 421.537994,116.197029 
	C423.294220,116.906555 424.821747,118.182121 426.455048,119.195892 
	C426.718567,118.915054 426.982086,118.634216 427.245605,118.353378 
	C421.169556,99.072662 415.093506,79.791946 408.944366,60.279312 
	C410.983582,60.819851 412.611755,61.248814 414.238495,61.683094 
	C420.565765,63.372250 423.966064,60.742298 423.991333,54.056770 
	C424.024719,45.231720 424.198181,36.400726 423.944336,27.582859 
	C423.685516,18.591206 426.082733,9.145769 420.000000,1.000000 
	C480.303467,1.000000 540.606934,1.000000 600.943481,1.000000 
	C600.943481,201.000000 600.943481,401.000000 600.943481,601.000000 
	C566.903687,601.000000 532.920532,601.000000 498.468506,600.531372 
	C497.999725,579.153320 497.999725,558.244019 497.999725,537.222839 
	C493.144318,537.222839 488.744751,537.222839 483.992371,537.222839 
	C483.992371,548.123047 483.992371,558.808350 483.992371,569.493652 
	C478.476410,560.332092 473.813354,550.919434 468.882660,541.649292 
	C467.909851,539.820374 466.112152,537.601562 464.332703,537.210510 
	C461.073456,536.494202 457.544189,537.006531 454.000000,537.006531 
	C454.000000,558.767761 454.000000,579.883850 454.000000,601.000000 
	C446.979034,601.000000 439.958099,601.000000 432.468231,600.540588 
	C431.999329,597.475403 431.999329,594.869629 431.999329,592.000183 
	C425.697815,592.000183 419.883362,592.188843 414.097595,591.864990 
	C412.683960,591.785889 410.272339,590.113037 410.186829,589.026001 
	C409.774780,583.788757 410.001404,578.501282 410.001404,572.853638 
	C416.287354,572.853638 422.038635,572.853638 427.726379,572.853638 
	C427.726379,569.714050 427.726379,566.975830 427.726379,563.849915 
	C421.715424,563.849915 415.968811,563.849915 410.277740,563.849915 
	C410.277740,557.705383 410.277740,551.967529 410.277740,545.852783 
	C417.639923,545.852783 424.730591,545.852783 431.997711,545.852783 
	C431.997711,543.658630 432.302368,541.771179 431.890503,540.055725 
	C431.616516,538.914551 430.334717,537.158997 429.477997,537.143799 
	C418.388123,536.947021 407.293549,537.013489 396.000000,537.013489 
	C396.000000,558.722839 396.000000,579.861450 396.000000,601.000000 
	C388.312408,601.000000 380.624847,601.000000 372.468323,600.539612 
	C371.999359,597.140076 371.999359,594.200989 371.999359,590.898865 
	C364.487732,590.898865 357.473450,590.898865 349.885773,590.898865 
	C356.970551,576.191833 363.834412,562.046509 370.576508,547.843323 
	C371.662170,545.556274 372.602600,543.046082 372.817230,540.570251 
	C372.912750,539.468689 371.061127,537.178528 370.056885,537.157410 
	C358.459137,536.913696 346.854401,537.001831 335.262085,537.001831 
	C335.262085,540.596802 335.262085,543.668091 335.262085,547.069092 
	C341.935760,547.069092 348.354248,547.069092 355.540680,547.069092 
	C348.989441,560.789490 342.834076,573.994080 336.369965,587.045837 
	C334.151337,591.525452 332.293304,595.902344 333.000000,601.000000 
	C325.312408,601.000000 317.624847,601.000000 309.468323,600.531372 
	C308.999359,579.176392 308.999359,558.290100 308.999359,537.360107 
	C304.424988,537.360107 300.247742,537.360107 296.000000,537.360107 
	C296.000000,558.813293 296.000000,579.906677 296.000000,601.000000 
	C283.312439,601.000000 270.624878,601.000000 257.468323,600.531372 
	C256.999329,582.127441 256.999329,564.192200 256.999329,545.867126 
	C261.936554,545.867126 266.358765,545.867126 270.732574,545.867126 
	C270.732574,542.727295 270.732574,539.989136 270.732574,537.262329 
	C256.717407,537.262329 242.970825,537.262329 229.000488,537.262329 
	C229.000488,538.826965 229.156281,540.160156 228.972122,541.444519 
	C228.345535,545.814209 230.037338,547.575989 234.504608,547.058167 
	C237.236053,546.741516 240.034088,546.999573 243.000000,546.999573 
	C243.000000,565.382019 243.000000,583.190979 243.000000,601.000000 
	C227.979111,601.000000 212.958206,601.000000 197.468384,600.531372 
	C196.999451,579.176270 196.999451,558.289856 196.999451,537.359375 
	C192.091476,537.359375 187.579422,537.359375 183.000000,537.359375 
	C183.000000,558.812256 183.000000,579.906128 183.000000,601.000000 
	C170.645767,601.000000 158.291550,601.000000 145.172836,600.666382 
	C149.147308,594.083923 146.442505,587.000366 146.661346,580.244629 
	C142.484009,579.842346 138.307465,579.431030 134.127380,579.059509 
	C133.865326,579.036133 133.575531,579.324768 132.908691,579.670349 
	C132.908691,583.552368 132.908691,587.638489 132.908691,591.752563 
	C127.768585,591.752563 123.030045,591.752563 117.999672,591.752563 
	C117.999672,580.875549 117.999695,570.243591 117.999664,559.611694 
	C117.999626,545.609741 117.999695,545.607117 131.931747,546.059631 
	C132.209259,546.068604 132.477737,546.355408 133.000275,546.656555 
	C133.000275,547.486633 132.983047,548.463745 133.002914,549.440125 
	C133.222809,560.243469 130.623215,559.007202 143.485641,558.843689 
	C144.670700,558.828613 146.654312,556.755371 146.837631,555.438721 
	C147.315582,552.006042 147.019226,548.462646 146.994797,544.963623 
	C146.953201,539.001831 145.010223,537.028076 139.072083,537.008118 
	C130.074310,536.977905 121.076347,536.998352 112.078468,537.000854 
	C105.828369,537.002563 104.013687,538.820374 104.005577,545.194702 
	C103.988403,558.691528 103.821236,572.191956 104.091942,585.683350 
	C104.194603,590.799561 105.333443,595.895081 106.000000,601.000000 
M525.916077,336.212250 
	C526.141174,335.784515 526.285278,335.281311 526.603333,334.940247 
	C531.793823,329.374756 537.460571,324.176941 542.058105,318.161102 
	C545.250732,313.983490 548.106262,308.999725 546.648071,303.054077 
	C528.150452,305.055969 507.368591,331.436554 509.574371,342.629883 
	C513.124207,341.695190 516.614380,340.776215 520.669373,340.474487 
	C515.381226,346.538361 509.947815,352.485535 504.912109,358.752228 
	C503.724030,360.230774 503.874847,362.785248 503.409760,364.844788 
	C505.569458,365.108398 508.022339,366.171082 509.840546,365.503967 
	C520.388062,361.633911 530.245911,356.400574 537.671692,347.710114 
	C541.672058,343.028412 545.333435,337.935608 546.146362,330.896820 
	C538.821777,331.454529 532.487671,333.364929 525.916077,336.212250 
M514.012024,281.727142 
	C513.972046,282.468750 513.932129,283.210358 513.176758,284.324432 
	C513.426270,286.900360 513.675842,289.476318 513.962646,292.437012 
	C517.334106,290.964813 519.728882,289.919128 522.748840,288.600403 
	C522.134521,290.249847 521.999512,291.289856 521.443115,291.999481 
	C516.886414,297.810852 513.978210,304.358551 512.834106,311.618958 
	C512.573059,313.275848 513.280884,315.085480 513.542786,316.824799 
	C515.225769,316.515747 517.347107,316.749512 518.516968,315.804962 
	C523.987122,311.388245 529.841492,307.195770 534.345398,301.892792 
	C541.143738,293.888275 544.749817,284.234253 545.191345,272.234314 
	C539.559448,275.507507 534.738220,278.309601 528.536438,281.914001 
	C535.760071,269.687653 541.230591,258.437683 539.823975,245.224319 
	C530.177124,246.443787 518.215454,263.184418 514.012024,281.727142 
M64.211617,264.732513 
	C66.942879,270.097321 69.674133,275.462128 72.750526,281.504852 
	C67.120972,278.231628 62.375721,275.472565 57.164001,272.442261 
	C56.482742,291.698029 76.420403,318.632294 88.807251,316.410126 
	C90.532021,306.048584 84.136261,298.270081 79.117287,288.971344 
	C82.710960,290.418518 85.032234,291.353271 87.386971,292.301514 
	C92.111916,276.898590 76.882523,248.917847 61.183247,245.086700 
	C62.130440,250.674576 63.009354,255.859650 63.991993,261.782288 
	C64.050255,262.521637 64.108521,263.260986 64.211617,264.732513 
M82.850479,340.002411 
	C83.739616,340.375885 84.603241,340.973083 85.523003,341.078033 
	C87.687813,341.324921 89.879417,341.336914 92.060181,341.443939 
	C92.039803,339.483215 92.593033,337.290375 91.908417,335.598419 
	C86.381302,321.938782 76.674339,312.023224 63.663208,305.346191 
	C61.124477,304.043396 58.154564,303.580780 54.982788,302.607666 
	C54.983444,310.410553 58.124001,316.121979 61.941177,321.231445 
	C65.822815,326.427155 70.628479,330.932526 75.161865,335.884796 
	C68.828995,334.002991 62.654968,332.168365 55.964310,330.180237 
	C56.065220,332.461395 55.919769,333.488556 56.179760,334.400024 
	C59.779697,347.020905 81.704964,364.903290 94.849915,365.997406 
	C98.679138,366.316132 99.916016,364.544342 98.339165,360.832336 
	C94.719162,352.310516 88.299263,346.132690 81.650841,340.253174 
	C81.791512,340.141296 81.932175,340.029449 82.850479,340.002411 
M410.008850,124.503624 
	C427.910736,136.296249 443.470001,150.542694 456.972168,167.282349 
	C472.139648,186.086609 484.089691,206.627731 490.720886,229.749969 
	C495.019287,244.737991 498.004974,260.284729 499.673370,275.786224 
	C500.972992,287.861206 499.472198,300.258179 498.964569,312.501648 
	C498.377869,326.653442 494.995178,340.291809 491.069336,353.842987 
	C484.903534,375.126221 475.193878,394.743286 461.306396,411.827026 
	C451.480957,423.913879 440.519531,435.373657 428.626434,445.408081 
	C413.858398,457.868164 397.055634,467.699158 378.997650,474.919067 
	C368.750061,479.016266 358.373199,483.026001 347.727081,485.833130 
	C333.145386,489.677948 318.252533,492.342651 303.207764,495.574432 
	C303.207764,490.230835 303.207764,485.800751 303.207764,481.292725 
	C353.363831,480.250580 396.518768,462.834290 432.575958,427.974426 
	C468.830322,392.923920 487.698792,349.996338 489.864960,299.960846 
	C492.020416,250.173965 476.649719,205.933502 443.747833,168.413513 
	C406.399170,125.822594 358.728729,104.616348 302.406616,103.174881 
	C302.027161,100.693031 301.739563,98.811913 301.451996,96.930794 
	C301.073303,96.969147 300.694611,97.007507 300.315918,97.045860 
	C300.134369,98.910622 299.952820,100.775383 299.729370,103.070648 
	C275.979675,104.221336 252.714325,107.583366 230.583420,116.771904 
	C208.356033,126.000519 188.411148,138.516266 171.035339,155.324722 
	C153.752258,172.043488 139.431747,190.786041 129.139984,212.529099 
	C118.857254,234.253082 113.379097,257.362976 112.176239,281.175018 
	C110.019745,323.865234 119.968933,363.394592 144.916519,398.835754 
	C182.485474,452.207001 234.257675,479.014404 298.750397,481.702362 
	C298.750397,486.697418 298.750397,490.798065 298.750397,495.071564 
	C291.002045,493.682587 283.527832,492.330872 276.049103,491.004333 
	C255.220459,487.309845 235.199203,480.955872 216.104752,471.937347 
	C199.261917,463.982269 183.549469,454.172668 169.346313,441.958435 
	C156.821243,431.187225 145.432236,419.431610 136.013260,405.860168 
	C124.193863,388.830048 115.498459,370.314331 109.963562,350.300323 
	C105.354813,333.635223 101.844429,316.808105 102.040260,299.427460 
	C102.146393,290.007294 101.971588,280.502289 103.170807,271.196289 
	C104.756546,258.890869 106.980331,246.597717 109.974022,234.558929 
	C115.430183,212.617599 125.863419,192.851379 139.118820,174.691177 
	C150.768997,158.730164 164.174332,144.331619 180.475174,132.872971 
	C187.270386,128.096298 193.978638,123.195930 200.726440,118.351799 
	C198.661896,118.259430 196.674896,118.501625 195.128693,119.457115 
	C189.651672,122.841705 184.288345,126.415291 178.948700,130.016251 
	C163.307022,140.564697 149.628174,153.370377 137.765854,167.919205 
	C124.799034,183.822647 114.102234,201.176437 106.760056,220.543808 
	C99.593018,239.449173 95.162621,258.921326 94.119728,279.023499 
	C93.112206,298.444061 94.120323,317.860687 98.038887,336.986542 
	C101.299294,352.900055 105.797066,368.456848 112.683510,383.240265 
	C124.090538,407.728241 139.638397,429.020203 160.145309,446.818939 
	C173.686172,458.571533 188.272064,468.652130 204.066177,476.929626 
	C224.506622,487.642242 246.239441,495.050720 269.619019,500.587830 
	C267.882568,501.302917 267.061279,501.736633 266.187286,501.985199 
	C261.408295,503.344299 256.533508,504.431610 251.882614,506.134155 
	C250.598297,506.604340 249.061111,508.950623 249.193405,510.281708 
	C249.783722,516.221130 253.080521,518.025696 259.075165,516.497437 
	C272.466980,513.083374 285.885773,509.774902 300.427490,506.139954 
	C300.427490,513.054321 300.427490,519.046875 300.427490,525.039368 
	C300.915649,525.004456 301.403809,524.969482 301.891968,524.934570 
	C301.891968,519.027222 301.891968,513.119873 301.891968,507.137085 
	C303.028290,507.074402 303.707367,506.883270 304.306519,507.026489 
	C317.602051,510.204773 330.897461,513.384766 344.172760,516.646240 
	C349.283813,517.901917 350.957703,516.802551 352.589783,510.892242 
	C353.952087,505.958832 350.124146,505.856567 347.163727,505.016083 
	C342.462250,503.681213 337.733185,502.443512 333.015778,501.164734 
	C353.326172,495.764832 372.733246,489.169983 391.259827,480.211426 
	C405.502960,473.324127 418.849609,464.980072 431.488098,455.323486 
	C446.729828,443.677917 459.875031,430.256134 471.074066,414.725830 
	C484.500214,396.107025 494.328430,375.726776 499.780609,353.565582 
	C503.558350,338.210510 506.108093,322.442108 507.727997,306.706177 
	C508.819702,296.101410 507.254974,285.232941 507.018951,274.479401 
	C506.670593,258.610474 503.013092,243.405029 498.063477,228.442078 
	C489.681458,203.102783 475.970795,180.815445 458.357178,160.991928 
	C443.610779,144.395386 426.168304,130.907608 407.050446,119.625450 
	C406.165161,119.103004 404.886169,119.247665 403.790558,119.081619 
	C403.723297,119.390587 403.656067,119.699547 403.588806,120.008514 
	C405.547729,121.331001 407.506683,122.653488 410.008850,124.503624 
M405.921997,505.399872 
	C404.381500,504.534576 402.847321,503.657776 401.299469,502.805847 
	C392.010101,497.692871 382.292969,493.923126 371.499329,494.045563 
	C366.806549,494.098755 365.227600,497.056763 368.300415,500.608490 
	C371.744507,504.589386 375.608765,508.488586 380.004669,511.310242 
	C392.060394,519.048584 404.826935,524.878723 421.778778,521.416199 
	C416.072632,515.670227 411.245148,510.809021 405.921997,505.399872 
M193.749374,522.037720 
	C211.688339,519.853516 225.988480,511.779419 236.213287,496.536957 
	C223.311142,488.291809 192.008011,503.094788 181.900848,521.939575 
	C185.746490,522.135437 189.371002,522.320007 193.749374,522.037720 
M408.458344,502.042755 
	C420.578003,507.543152 432.921783,510.321808 447.055267,505.407196 
	C443.250000,501.820831 440.484528,498.446655 437.025116,496.092041 
	C424.589935,487.628174 410.722504,483.952271 395.690857,485.071594 
	C394.103668,485.189758 391.482910,486.059906 391.289032,486.988068 
	C390.959595,488.565033 391.634491,491.192627 392.845825,492.102264 
	C397.587463,495.662872 402.704224,498.723846 408.458344,502.042755 
M193.083069,485.397186 
	C178.481445,487.704590 165.439880,492.943481 155.432602,505.527222 
	C157.503159,506.105499 159.094742,506.896576 160.705612,506.938019 
	C166.687302,507.091919 172.786530,507.731659 178.637421,506.843597 
	C190.143021,505.097229 200.389679,500.050751 209.067535,492.221771 
	C210.273499,491.133850 211.217285,488.476746 210.707809,487.151276 
	C210.262115,485.991791 207.633713,485.218475 205.910446,485.094177 
	C201.935944,484.807465 197.925537,485.018585 193.083069,485.397186 
M134.873138,484.683807 
	C133.405640,486.600098 133.539810,487.129700 136.199432,488.189758 
	C146.373169,492.244904 156.696335,491.967041 166.879761,489.419189 
	C173.595581,487.738953 180.030197,484.714569 186.336426,481.750946 
	C188.239975,480.856323 189.291626,478.148956 190.733505,476.271973 
	C188.811783,475.187836 186.930008,473.261414 184.961273,473.168030 
	C177.193375,472.799500 169.360977,472.524170 161.622452,473.121063 
	C151.806168,473.878235 143.043442,477.849335 134.873138,484.683807 
M412.003571,476.482361 
	C413.377838,478.325134 414.395996,480.677032 416.184265,481.927948 
	C427.638306,489.939941 440.839874,491.380341 454.253296,490.824219 
	C458.959625,490.629120 463.584503,488.469574 469.555389,486.852570 
	C466.879700,484.511444 465.554779,483.098480 463.994995,482.027496 
	C451.209045,473.248138 436.798187,470.979614 421.741760,472.147186 
	C418.437073,472.403442 415.271271,474.450897 412.003571,476.482361 
M128.645309,471.999878 
	C131.381790,472.333191 134.189270,473.229767 136.841599,472.895416 
	C145.163483,471.846497 153.452713,470.472321 161.700668,468.934784 
	C165.113205,468.298615 169.794754,467.429108 169.545944,463.374847 
	C169.426819,461.434021 164.766510,458.633514 161.874374,458.214508 
	C153.159958,456.952087 144.274658,455.893738 135.511612,456.225372 
	C127.258438,456.537628 119.401077,459.498505 111.791817,465.902954 
	C117.719147,468.163818 122.745239,470.080933 128.645309,471.999878 
M461.414215,456.000244 
	C454.117340,456.669189 446.744995,456.920929 439.561981,458.219513 
	C436.820831,458.715088 434.513428,461.609802 432.008362,463.411194 
	C434.134918,465.197327 435.990875,467.878235 438.434113,468.617157 
	C449.973938,472.107056 461.753754,475.030609 473.857300,471.899078 
	C479.219666,470.511658 484.302094,468.042175 490.595734,465.652222 
	C480.961975,459.130493 472.219299,455.893982 461.414215,456.000244 
M451.461060,447.031219 
	C453.735107,448.682922 455.788025,451.150452 458.323517,451.837646 
	C466.883911,454.157898 475.734070,454.687653 484.447693,452.904388 
	C493.076050,451.138672 501.253906,448.020508 508.773041,441.815063 
	C505.580566,440.351868 503.115601,438.835449 500.436188,438.059174 
	C486.802216,434.108978 473.447144,435.443085 460.527588,440.998077 
	C457.459045,442.317474 454.805481,444.601990 451.461060,447.031219 
M100.891571,438.021667 
	C98.678436,439.155334 96.465302,440.289032 93.025444,442.051117 
	C97.901268,444.862396 101.788834,447.886658 106.194931,449.441742 
	C111.436569,451.291718 117.192055,451.624329 122.601654,453.074188 
	C130.865463,455.289001 138.628677,452.966675 146.405273,450.884369 
	C147.805145,450.509521 149.349121,448.821503 149.792831,447.413940 
	C150.063568,446.554993 148.624969,444.605804 147.490875,443.960693 
	C144.322021,442.158081 141.020355,440.460327 137.577484,439.291473 
	C125.786148,435.288147 113.808472,434.527649 100.891571,438.021667 
M500.561676,430.048859 
	C509.390442,427.720428 517.093262,423.738953 522.882263,415.873871 
	C506.107025,409.662415 486.772308,414.453888 473.512756,423.173096 
	C471.214783,424.684204 469.831421,427.586151 468.025604,429.845673 
	C470.897247,430.897034 473.801727,432.911591 476.634186,432.814911 
	C484.413300,432.549377 492.162201,431.397705 500.561676,430.048859 
M94.733482,427.973785 
	C105.599693,432.670807 117.030983,433.612274 128.673248,432.978363 
	C133.785553,432.700012 135.075714,430.334412 131.953674,426.461639 
	C130.018646,424.061218 127.522224,421.404938 124.748833,420.518646 
	C115.633781,417.605621 106.376045,414.900879 96.976723,413.204041 
	C91.252068,412.170593 85.248344,413.500580 78.294548,417.183228 
	C84.256935,421.113403 89.157188,424.343445 94.733482,427.973785 
M72.029755,388.000427 
	C67.591713,387.747192 67.567223,389.667603 69.981575,392.440521 
	C82.152794,406.419250 97.980064,411.915070 116.043182,411.890533 
	C117.475143,411.888580 118.905037,410.361786 120.675819,409.349243 
	C118.903267,407.097839 117.784401,405.275024 116.290817,403.843109 
	C104.170052,392.222839 89.675224,386.997711 72.029755,388.000427 
M491.533569,398.978607 
	C488.089355,402.197906 484.645142,405.417206 481.010834,408.814209 
	C493.182251,417.346008 524.948242,405.020752 534.193542,388.962402 
	C532.512878,388.612762 531.054199,388.153961 529.566833,388.024109 
	C515.769409,386.819702 503.387756,390.776520 491.533569,398.978607 
M516.508179,384.045593 
	C527.681030,379.081696 537.099182,372.254303 542.153076,360.453339 
	C525.749939,355.481201 494.576172,375.891296 494.118652,388.475555 
	C497.125793,388.475555 500.193573,388.942932 503.050964,388.366821 
	C507.420044,387.485901 511.643921,385.884979 516.508179,384.045593 
M81.918861,363.398254 
	C65.045036,358.683960 65.045036,358.683960 60.068214,360.937134 
	C68.696754,378.476410 96.585197,393.769592 107.930855,387.183563 
	C104.303047,377.691681 95.696823,369.832153 81.918861,363.398254 
M72.470558,242.976471 
	C75.961418,251.040207 79.051552,259.421600 87.983734,263.501312 
	C94.014420,252.203522 86.368500,222.672333 70.741943,214.083237 
	C66.570801,219.514999 68.322830,230.350632 72.470558,242.976471 
M512.000122,255.355835 
	C512.338074,257.934479 512.675964,260.513092 513.021484,263.149261 
	C527.082031,260.167603 538.516479,224.454254 530.715454,213.772369 
	C517.738220,224.281250 512.190308,238.093796 512.000122,255.355835 
M87.983154,232.474182 
	C89.912216,233.977020 91.841278,235.479874 93.770340,236.982712 
	C94.839050,235.333527 96.620667,233.779480 96.855553,232.019043 
	C97.995338,223.476791 97.669632,214.975800 95.208275,206.604630 
	C92.912773,198.797577 89.671257,191.620163 82.708336,185.356720 
	C81.667778,189.145523 80.363327,192.138397 80.082291,195.224472 
	C78.905296,208.149139 81.229256,220.455536 87.983154,232.474182 
M521.999817,204.433899 
	C521.511597,198.602570 521.023376,192.771240 520.535156,186.939911 
	C519.958862,186.808884 519.382507,186.677856 518.806152,186.546829 
	C517.701477,187.374222 516.318237,187.996368 515.534363,189.060150 
	C505.675171,202.440140 502.435089,217.269363 505.896790,233.574188 
	C506.785645,237.760773 508.433990,238.266296 511.314545,235.170105 
	C519.129150,226.770523 521.346130,216.363892 521.999817,204.433899 
M503.610931,208.911835 
	C505.181519,203.037964 507.017334,197.219788 508.264618,191.278061 
	C510.510132,180.581665 508.034851,170.572449 503.308563,160.430908 
	C502.284363,161.390854 501.588104,161.849075 501.148895,162.484879 
	C496.277130,169.537292 493.444214,177.606583 493.265533,185.914917 
	C493.096954,193.754120 494.624908,201.753082 496.375732,209.461639 
	C497.345856,213.733002 500.262024,213.518082 503.610931,208.911835 
M94.996613,170.548477 
	C89.954887,183.990173 94.930580,207.786957 102.248192,212.953674 
	C112.949135,203.476974 110.567093,169.797791 97.993507,161.632477 
	C96.958244,164.424149 95.980011,167.062027 94.996613,170.548477 
M130.994400,164.480667 
	C142.583817,154.976959 147.904861,126.987747 140.201721,113.894646 
	C138.167389,116.431931 136.149704,118.757950 134.343063,121.237732 
	C129.066833,128.479889 127.084953,137.034241 126.218399,145.597107 
	C125.554520,152.157303 124.438828,159.438736 130.994400,164.480667 
M474.627014,138.102768 
	C472.032898,129.500290 469.632843,120.790222 462.059113,114.839317 
	C453.805695,123.779572 458.918457,155.635406 472.317352,165.370087 
	C473.273315,162.875809 474.763000,160.655334 474.880737,158.364349 
	C475.213165,151.896057 474.982666,145.398849 474.627014,138.102768 
M491.976379,151.920975 
	C489.516266,146.825089 487.056152,141.729187 484.109650,135.625809 
	C475.347534,152.361465 476.590485,167.708267 482.655670,183.012009 
	C483.445496,185.004913 485.872284,186.349075 487.540802,187.993713 
	C488.705994,186.261795 490.284180,184.677948 490.967010,182.773132 
	C494.498871,172.920563 493.179535,162.837814 491.976379,151.920975 
M117.049057,138.442993 
	C106.930016,151.897232 107.578064,166.934265 110.842720,182.246292 
	C111.284416,184.317902 113.157516,186.084320 114.367821,187.992065 
	C115.926025,186.471741 117.654083,185.084518 118.985184,183.386200 
	C119.937714,182.170898 120.463264,180.576416 120.999519,179.086426 
	C125.163361,167.517075 124.925652,155.772156 121.859261,144.068909 
	C121.276993,141.846664 119.121109,140.036713 117.049057,138.442993 
M155.535660,139.976807 
	C165.223251,127.277763 168.938599,113.164810 166.153580,97.168114 
	C151.919617,102.976517 141.236847,137.272675 148.983002,145.203094 
	C150.961670,143.654419 152.983429,142.072021 155.535660,139.976807 
M445.952484,139.423279 
	C448.222900,141.440399 450.493317,143.457535 452.885834,145.583160 
	C459.947601,132.848785 449.490540,103.500069 435.727936,97.735619 
	C435.144714,101.303543 433.838531,104.778458 434.170074,108.089371 
	C435.288025,119.253181 439.183350,129.548721 445.952484,139.423279 
M400.321228,118.035812 
	C401.248230,118.364380 402.175232,118.692947 403.102234,119.021507 
	C403.263397,118.626129 403.424561,118.230751 403.585693,117.835365 
	C402.131134,117.231270 400.696686,116.564156 399.201721,116.086533 
	C398.959076,116.008995 398.448090,116.771446 398.061157,117.145645 
	C398.543823,117.430290 399.026489,117.714935 400.321228,118.035812 
z"/>
<path fill="#FFFFFF" opacity="1.000000" stroke="none" 
	d="
M419.531342,1.000000 
	C426.082733,9.145769 423.685516,18.591206 423.944336,27.582859 
	C424.198181,36.400726 424.024719,45.231720 423.991333,54.056770 
	C423.966064,60.742298 420.565765,63.372250 414.238495,61.683094 
	C412.611755,61.248814 410.983582,60.819851 408.944366,60.279312 
	C415.093506,79.791946 421.169556,99.072662 427.245605,118.353378 
	C426.982086,118.634216 426.718567,118.915054 426.455048,119.195892 
	C424.821747,118.182121 423.294220,116.906555 421.537994,116.197029 
	C410.070282,111.564011 405.231903,102.120300 401.882599,90.958183 
	C398.346344,79.172935 393.532501,67.776543 389.690613,56.074406 
	C388.399963,52.143192 388.379242,47.795063 387.712524,43.184406 
	C394.245148,44.375835 399.369598,45.310436 404.784241,46.297962 
	C404.784241,35.690411 404.784241,25.600731 404.784241,15.372207 
	C398.380188,14.911289 392.031494,14.454356 385.181488,13.961342 
	C385.181488,40.935459 385.181488,67.810989 385.181488,95.620987 
	C378.673157,93.427078 372.881958,91.474907 366.000336,89.155167 
	C366.000336,69.750237 366.105499,50.191277 365.955322,30.634275 
	C365.881805,21.057766 365.333679,11.484900 365.000183,1.455192 
	C383.020905,1.000000 401.041779,1.000000 419.531342,1.000000 
z"/>
<path fill="#FFFFFF" opacity="1.000000" stroke="none" 
	d="
M229.531342,1.000000 
	C235.482330,10.033720 231.928009,19.946497 233.163300,29.542564 
	C226.699570,30.333920 220.609451,31.079536 214.177521,31.866999 
	C214.177521,26.152979 214.177521,20.391729 214.177521,13.860417 
	C207.346252,14.345215 200.907959,14.802125 194.000000,15.292366 
	C194.000000,20.424088 193.665726,25.571259 194.173462,30.633980 
	C194.362228,32.516228 196.138931,34.830181 197.847260,35.871792 
	C207.855743,41.974224 218.146469,47.615715 228.115692,53.778763 
	C229.943726,54.908863 231.699051,57.663750 231.825012,59.768196 
	C232.272049,67.236099 231.973267,74.747200 232.007584,82.241699 
	C232.035309,88.292282 227.811981,90.935486 223.239502,93.284508 
	C210.275681,99.944427 197.306549,106.594101 184.319290,113.208138 
	C177.791641,116.532463 175.095078,114.915848 175.019547,107.566818 
	C174.935669,99.406830 174.891037,91.242554 175.096069,83.086861 
	C175.135437,81.521088 175.999924,79.180229 177.186005,78.576424 
	C182.413208,75.915344 187.897461,73.759186 194.062378,71.084389 
	C194.062378,78.712898 194.062378,85.261909 194.062378,92.124130 
	C200.161926,89.590469 205.808533,87.388023 211.289276,84.830208 
	C212.223648,84.394157 212.874512,82.453308 212.924393,81.178993 
	C213.113068,76.360451 213.000259,71.530098 213.000259,67.096786 
	C201.722443,60.384682 190.552383,54.061993 179.805374,47.087456 
	C177.434525,45.548847 175.398911,41.774651 175.215759,38.901951 
	C174.634109,29.778891 174.598267,20.568382 175.210403,11.449335 
	C175.436279,8.084617 178.052505,4.880359 179.289246,1.301458 
	C195.687561,1.000000 212.375122,1.000000 229.531342,1.000000 
z"/>
<path fill="#FFFFFF" opacity="1.000000" stroke="none" 
	d="
M334.531464,1.000000 
	C336.732635,7.843518 338.361450,14.715338 340.217316,21.525270 
	C345.871552,42.273098 351.611084,62.997696 357.333130,83.726997 
	C357.498199,84.325012 357.839539,84.874359 358.540619,86.421616 
	C351.799866,85.173058 345.786285,84.196991 339.869293,82.808937 
	C339.019257,82.609520 338.469513,80.473480 338.070587,79.146561 
	C337.285217,76.534203 336.032990,73.821442 336.185120,71.221069 
	C336.453369,66.636040 333.007233,66.501190 330.472290,66.141510 
	C325.292938,65.406609 320.007996,65.415825 314.382080,65.096771 
	C313.181091,69.556267 311.946045,74.142395 310.681519,78.837799 
	C304.509033,78.837799 298.382507,78.837799 291.559296,78.837799 
	C299.316284,52.887241 306.972809,27.272823 314.314667,1.329203 
	C320.687653,1.000000 327.375275,1.000000 334.531464,1.000000 
M324.032379,23.967541 
	C321.708282,33.861206 319.384186,43.754875 317.054230,53.673500 
	C322.188965,54.107430 326.990601,54.513210 332.487396,54.977737 
	C329.732971,44.042080 327.126648,33.694538 324.032379,23.967541 
z"/>
<path fill="#FFFFFF" opacity="1.000000" stroke="none" 
	d="
M454.464661,601.000000 
	C454.000000,579.883850 454.000000,558.767761 454.000000,537.006531 
	C457.544189,537.006531 461.073456,536.494202 464.332703,537.210510 
	C466.112152,537.601562 467.909851,539.820374 468.882660,541.649292 
	C473.813354,550.919434 478.476410,560.332092 483.992371,569.493652 
	C483.992371,558.808350 483.992371,548.123047 483.992371,537.222839 
	C488.744751,537.222839 493.144318,537.222839 497.999725,537.222839 
	C497.999725,558.244019 497.999725,579.153320 497.999878,600.531372 
	C493.975464,601.000000 489.950897,601.000000 485.461670,600.622559 
	C479.573944,589.281250 474.150879,578.317444 468.727783,567.353638 
	C468.485199,567.404968 468.242584,567.456238 468.000000,567.507568 
	C468.000000,578.671692 468.000000,589.835876 468.000000,601.000000 
	C463.643097,601.000000 459.286194,601.000000 454.464661,601.000000 
z"/>
<path fill="#FFFFFF" opacity="1.000000" stroke="none" 
	d="
M297.531342,1.000000 
	C298.000000,4.478643 298.000000,7.957286 298.000000,11.833485 
	C291.728394,11.833485 285.646088,11.833485 279.183868,11.833485 
	C276.697266,34.963139 278.773071,57.833160 277.796295,80.711418 
	C271.596985,81.559517 265.544952,82.387459 259.500244,83.214401 
	C259.500244,59.686043 259.500244,36.664982 259.500244,12.999683 
	C254.939545,12.999683 250.003983,12.776354 245.099487,13.070647 
	C241.205582,13.304301 239.390015,12.114658 239.986115,8.044759 
	C240.291458,5.960028 240.443039,3.852779 240.332062,1.377855 
	C259.020905,1.000000 278.041779,1.000000 297.531342,1.000000 
z"/>
<path fill="#FFFFFF" opacity="1.000000" stroke="none" 
	d="
M106.468658,601.000000 
	C105.333443,595.895081 104.194603,590.799561 104.091942,585.683350 
	C103.821236,572.191956 103.988403,558.691528 104.005577,545.194702 
	C104.013687,538.820374 105.828369,537.002563 112.078468,537.000854 
	C121.076347,536.998352 130.074310,536.977905 139.072083,537.008118 
	C145.010223,537.028076 146.953201,539.001831 146.994797,544.963623 
	C147.019226,548.462646 147.315582,552.006042 146.837631,555.438721 
	C146.654312,556.755371 144.670700,558.828613 143.485641,558.843689 
	C130.623215,559.007202 133.222809,560.243469 133.002914,549.440125 
	C132.983047,548.463745 133.000275,547.486633 133.000275,546.656555 
	C132.477737,546.355408 132.209259,546.068604 131.931747,546.059631 
	C117.999695,545.607117 117.999626,545.609741 117.999664,559.611694 
	C117.999695,570.243591 117.999672,580.875549 117.999672,591.752563 
	C123.030045,591.752563 127.768585,591.752563 132.908691,591.752563 
	C132.908691,587.638489 132.908691,583.552368 132.908691,579.670349 
	C133.575531,579.324768 133.865326,579.036133 134.127380,579.059509 
	C138.307465,579.431030 142.484009,579.842346 146.661346,580.244629 
	C146.442505,587.000366 149.147308,594.083923 144.704178,600.666382 
	C132.312439,601.000000 119.624878,601.000000 106.468658,601.000000 
z"/>
<path fill="#FFFFFF" opacity="1.000000" stroke="none" 
	d="
M396.468658,601.000000 
	C396.000000,579.861450 396.000000,558.722839 396.000000,537.013489 
	C407.293549,537.013489 418.388123,536.947021 429.477997,537.143799 
	C430.334717,537.158997 431.616516,538.914551 431.890503,540.055725 
	C432.302368,541.771179 431.997711,543.658630 431.997711,545.852783 
	C424.730591,545.852783 417.639923,545.852783 410.277740,545.852783 
	C410.277740,551.967529 410.277740,557.705383 410.277740,563.849915 
	C415.968811,563.849915 421.715424,563.849915 427.726379,563.849915 
	C427.726379,566.975830 427.726379,569.714050 427.726379,572.853638 
	C422.038635,572.853638 416.287354,572.853638 410.001404,572.853638 
	C410.001404,578.501282 409.774780,583.788757 410.186829,589.026001 
	C410.272339,590.113037 412.683960,591.785889 414.097595,591.864990 
	C419.883362,592.188843 425.697815,592.000183 431.999329,592.000183 
	C431.999329,594.869629 431.999329,597.475403 431.999664,600.540588 
	C420.312439,601.000000 408.624878,601.000000 396.468658,601.000000 
z"/>
<path fill="#FFFFFF" opacity="1.000000" stroke="none" 
	d="
M333.468658,601.000000 
	C332.293304,595.902344 334.151337,591.525452 336.369965,587.045837 
	C342.834076,573.994080 348.989441,560.789490 355.540680,547.069092 
	C348.354248,547.069092 341.935760,547.069092 335.262085,547.069092 
	C335.262085,543.668091 335.262085,540.596802 335.262085,537.001831 
	C346.854401,537.001831 358.459137,536.913696 370.056885,537.157410 
	C371.061127,537.178528 372.912750,539.468689 372.817230,540.570251 
	C372.602600,543.046082 371.662170,545.556274 370.576508,547.843323 
	C363.834412,562.046509 356.970551,576.191833 349.885773,590.898865 
	C357.473450,590.898865 364.487732,590.898865 371.999359,590.898865 
	C371.999359,594.200989 371.999359,597.140076 371.999695,600.539612 
	C359.312439,601.000000 346.624878,601.000000 333.468658,601.000000 
z"/>
<path fill="#FFFFFF" opacity="1.000000" stroke="none" 
	d="
M243.464645,601.000000 
	C243.000000,583.190979 243.000000,565.382019 243.000000,546.999573 
	C240.034088,546.999573 237.236053,546.741516 234.504608,547.058167 
	C230.037338,547.575989 228.345535,545.814209 228.972122,541.444519 
	C229.156281,540.160156 229.000488,538.826965 229.000488,537.262329 
	C242.970825,537.262329 256.717407,537.262329 270.732574,537.262329 
	C270.732574,539.989136 270.732574,542.727295 270.732574,545.867126 
	C266.358765,545.867126 261.936554,545.867126 256.999329,545.867126 
	C256.999329,564.192200 256.999329,582.127441 256.999664,600.531372 
	C252.643097,601.000000 248.286194,601.000000 243.464645,601.000000 
z"/>
<path fill="#FFFFFF" opacity="1.000000" stroke="none" 
	d="
M183.464645,601.000000 
	C183.000000,579.906128 183.000000,558.812256 183.000000,537.359375 
	C187.579422,537.359375 192.091476,537.359375 196.999451,537.359375 
	C196.999451,558.289856 196.999451,579.176270 196.999725,600.531372 
	C192.643097,601.000000 188.286194,601.000000 183.464645,601.000000 
z"/>
<path fill="#FFFFFF" opacity="1.000000" stroke="none" 
	d="
M296.463196,601.000000 
	C296.000000,579.906677 296.000000,558.813293 296.000000,537.360107 
	C300.247742,537.360107 304.424988,537.360107 308.999359,537.360107 
	C308.999359,558.290100 308.999359,579.176392 308.999695,600.531372 
	C304.975464,601.000000 300.950897,601.000000 296.463196,601.000000 
z"/>
<path fill="#000000" opacity="1.000000" stroke="none" 
	d="
M468.467590,601.000000 
	C468.000000,589.835876 468.000000,578.671692 468.000000,567.507568 
	C468.242584,567.456238 468.485199,567.404968 468.727783,567.353638 
	C474.150879,578.317444 479.573944,589.281250 484.998505,600.622559 
	C479.645081,601.000000 474.290131,601.000000 468.467590,601.000000 
z"/>
<path fill="#FFFFFF" opacity="1.000000" stroke="none" 
	d="
M409.737244,124.239799 
	C407.506683,122.653488 405.547729,121.331001 403.588806,120.008514 
	C403.656067,119.699547 403.723297,119.390587 403.790558,119.081619 
	C404.886169,119.247665 406.165161,119.103004 407.050446,119.625450 
	C426.168304,130.907608 443.610779,144.395386 458.357178,160.991928 
	C475.970795,180.815445 489.681458,203.102783 498.063477,228.442078 
	C503.013092,243.405029 506.670593,258.610474 507.018951,274.479401 
	C507.254974,285.232941 508.819702,296.101410 507.727997,306.706177 
	C506.108093,322.442108 503.558350,338.210510 499.780609,353.565582 
	C494.328430,375.726776 484.500214,396.107025 471.074066,414.725830 
	C459.875031,430.256134 446.729828,443.677917 431.488098,455.323486 
	C418.849609,464.980072 405.502960,473.324127 391.259827,480.211426 
	C372.733246,489.169983 353.326172,495.764832 333.015778,501.164734 
	C337.733185,502.443512 342.462250,503.681213 347.163727,505.016083 
	C350.124146,505.856567 353.952087,505.958832 352.589783,510.892242 
	C350.957703,516.802551 349.283813,517.901917 344.172760,516.646240 
	C330.897461,513.384766 317.602051,510.204773 304.306519,507.026489 
	C303.707367,506.883270 303.028290,507.074402 301.891968,507.137085 
	C301.891968,513.119873 301.891968,519.027222 301.891968,524.934570 
	C301.403809,524.969482 300.915649,525.004456 300.427490,525.039368 
	C300.427490,519.046875 300.427490,513.054321 300.427490,506.139954 
	C285.885773,509.774902 272.466980,513.083374 259.075165,516.497437 
	C253.080521,518.025696 249.783722,516.221130 249.193405,510.281708 
	C249.061111,508.950623 250.598297,506.604340 251.882614,506.134155 
	C256.533508,504.431610 261.408295,503.344299 266.187286,501.985199 
	C267.061279,501.736633 267.882568,501.302917 269.619019,500.587830 
	C246.239441,495.050720 224.506622,487.642242 204.066177,476.929626 
	C188.272064,468.652130 173.686172,458.571533 160.145309,446.818939 
	C139.638397,429.020203 124.090538,407.728241 112.683510,383.240265 
	C105.797066,368.456848 101.299294,352.900055 98.038887,336.986542 
	C94.120323,317.860687 93.112206,298.444061 94.119728,279.023499 
	C95.162621,258.921326 99.593018,239.449173 106.760056,220.543808 
	C114.102234,201.176437 124.799034,183.822647 137.765854,167.919205 
	C149.628174,153.370377 163.307022,140.564697 178.948700,130.016251 
	C184.288345,126.415291 189.651672,122.841705 195.128693,119.457115 
	C196.674896,118.501625 198.661896,118.259430 200.726440,118.351799 
	C193.978638,123.195930 187.270386,128.096298 180.475174,132.872971 
	C164.174332,144.331619 150.768997,158.730164 139.118820,174.691177 
	C125.863419,192.851379 115.430183,212.617599 109.974022,234.558929 
	C106.980331,246.597717 104.756546,258.890869 103.170807,271.196289 
	C101.971588,280.502289 102.146393,290.007294 102.040260,299.427460 
	C101.844429,316.808105 105.354813,333.635223 109.963562,350.300323 
	C115.498459,370.314331 124.193863,388.830048 136.013260,405.860168 
	C145.432236,419.431610 156.821243,431.187225 169.346313,441.958435 
	C183.549469,454.172668 199.261917,463.982269 216.104752,471.937347 
	C235.199203,480.955872 255.220459,487.309845 276.049103,491.004333 
	C283.527832,492.330872 291.002045,493.682587 298.750397,495.071564 
	C298.750397,490.798065 298.750397,486.697418 298.750397,481.702362 
	C234.257675,479.014404 182.485474,452.207001 144.916519,398.835754 
	C119.968933,363.394592 110.019745,323.865234 112.176239,281.175018 
	C113.379097,257.362976 118.857254,234.253082 129.139984,212.529099 
	C139.431747,190.786041 153.752258,172.043488 171.035339,155.324722 
	C188.411148,138.516266 208.356033,126.000519 230.583420,116.771904 
	C252.714325,107.583366 275.979675,104.221336 299.729370,103.070648 
	C299.952820,100.775383 300.134369,98.910622 300.315918,97.045860 
	C300.694611,97.007507 301.073303,96.969147 301.451996,96.930794 
	C301.739563,98.811913 302.027161,100.693031 302.406616,103.174881 
	C358.728729,104.616348 406.399170,125.822594 443.747833,168.413513 
	C476.649719,205.933502 492.020416,250.173965 489.864960,299.960846 
	C487.698792,349.996338 468.830322,392.923920 432.575958,427.974426 
	C396.518768,462.834290 353.363831,480.250580 303.207764,481.292725 
	C303.207764,485.800751 303.207764,490.230835 303.207764,495.574432 
	C318.252533,492.342651 333.145386,489.677948 347.727081,485.833130 
	C358.373199,483.026001 368.750061,479.016266 378.997650,474.919067 
	C397.055634,467.699158 413.858398,457.868164 428.626434,445.408081 
	C440.519531,435.373657 451.480957,423.913879 461.306396,411.827026 
	C475.193878,394.743286 484.903534,375.126221 491.069336,353.842987 
	C494.995178,340.291809 498.377869,326.653442 498.964569,312.501648 
	C499.472198,300.258179 500.972992,287.861206 499.673370,275.786224 
	C498.004974,260.284729 495.019287,244.737991 490.720886,229.749969 
	C484.089691,206.627731 472.139648,186.086609 456.972168,167.282349 
	C443.470001,150.542694 427.910736,136.296249 409.737244,124.239799 
M403.970551,218.667694 
	C418.159302,239.165176 425.311584,262.094421 427.220825,287.104675 
	C440.915955,288.303711 454.369446,289.481598 467.969086,290.672272 
	C466.447388,245.059601 450.298340,199.613480 406.776031,163.574753 
	C377.071167,138.977585 342.658844,125.418907 302.869202,125.862885 
	C303.708038,139.809097 304.513641,153.203018 305.295288,166.198837 
	C314.761261,167.529556 324.320129,167.939651 333.356079,170.328125 
	C355.639008,176.218140 374.759155,188.102005 391.342072,203.975067 
	C395.811554,208.253235 399.510681,213.336166 403.970551,218.667694 
M139.445038,250.041260 
	C136.347412,263.434967 133.960388,276.899261 135.273895,290.950256 
	C148.491898,289.518951 161.561569,288.103729 173.466949,286.814545 
	C176.385620,274.315338 178.614487,262.092072 182.148346,250.258530 
	C187.571671,232.098022 198.006348,216.623978 211.331070,203.398041 
	C222.605362,192.207336 235.410873,182.951431 250.382599,176.832184 
	C263.662811,171.404251 277.228210,167.521667 291.566803,167.139450 
	C296.167297,167.016800 296.885132,165.137802 297.076965,161.284286 
	C297.492279,152.941986 298.406860,144.625763 298.958649,136.288391 
	C299.183289,132.893845 298.995728,129.472031 298.995728,126.099091 
	C226.895660,124.299774 158.147583,178.345673 139.445038,250.041260 
M134.999588,301.547668 
	C136.669464,312.931885 137.368301,324.563721 140.195999,335.652710 
	C147.886948,365.812988 163.753571,391.470276 185.854767,413.270782 
	C189.797729,417.160126 193.973251,421.002350 198.622421,423.949860 
	C210.140701,431.252258 221.693008,438.610352 233.795914,444.851929 
	C247.132263,451.729584 261.713898,455.448914 276.531952,457.693787 
	C283.891632,458.808838 291.419037,458.816925 298.573151,459.305420 
	C297.897278,444.920166 297.266022,431.484833 296.636414,418.084564 
	C233.681625,416.252930 178.972244,367.543182 174.674271,297.992889 
	C161.589355,296.611298 148.429047,295.221741 134.999588,293.803772 
	C134.999588,296.607117 134.999588,298.591217 134.999588,301.547668 
M390.501007,380.998871 
	C367.329376,404.685791 338.934570,416.618317 305.284302,418.428284 
	C304.723358,431.897827 304.164520,445.316467 303.604553,458.762238 
	C397.830658,460.011261 472.004303,372.174622 466.404785,293.816681 
	C453.315338,295.228058 440.237183,296.638184 427.321838,298.030792 
	C425.642426,330.520691 413.480133,357.789703 390.501007,380.998871 
M330.979767,402.528320 
	C349.113220,398.045258 364.589447,388.631927 378.188324,376.184906 
	C391.291260,364.191772 401.044373,349.677460 407.398041,333.063141 
	C411.761444,321.653137 414.590057,309.868134 413.908783,297.081390 
	C398.205017,299.075439 382.652313,300.478851 367.324463,303.165283 
	C353.374695,305.610138 340.435791,310.942139 330.130066,321.339447 
	C320.460815,331.094635 317.088257,343.743622 314.092651,356.444061 
	C311.648773,366.805237 309.775543,377.320770 308.132263,387.843262 
	C307.209869,393.749664 307.267975,399.809174 306.811615,406.934906 
	C315.263672,405.503632 322.755737,404.234955 330.979767,402.528320 
M214.543137,366.034576 
	C215.151535,366.983551 215.625519,368.060303 216.388245,368.862579 
	C231.059113,384.294373 248.103363,396.022278 268.748413,401.986908 
	C277.270721,404.449127 285.875092,406.599884 295.670959,405.804138 
	C294.395111,396.876862 293.440887,388.463013 291.944458,380.146698 
	C289.833435,368.414703 287.794220,356.635010 284.868286,345.092712 
	C280.596741,328.242126 270.195038,315.897308 254.183472,309.146454 
	C237.921326,302.289886 220.494003,300.311859 203.024017,298.981842 
	C197.755432,298.580780 192.502945,297.968231 186.688522,297.398193 
	C188.163773,305.452667 189.264542,313.266998 191.063934,320.917023 
	C195.000427,337.652832 202.743469,352.523621 214.543137,366.034576 
M206.724487,285.003296 
	C216.699890,283.669952 226.764542,282.802124 236.632919,280.910431 
	C260.319336,276.369965 278.224854,264.370178 284.851379,239.919556 
	C288.256378,227.355865 290.572388,214.475128 292.904053,201.651016 
	C294.234131,194.335434 294.605743,186.845566 295.415649,179.372269 
	C238.892105,178.274139 186.426437,233.328003 188.460892,287.340363 
	C194.271393,286.568878 200.035294,285.803589 206.724487,285.003296 
M316.037720,236.324158 
	C316.357239,237.063614 316.806152,237.774460 316.976868,238.546799 
	C319.309326,249.099716 324.221130,258.396942 332.209137,265.536346 
	C343.080536,275.252808 356.479370,279.787964 370.706146,281.984100 
	C379.843811,283.394684 388.990173,284.770386 398.162018,285.929230 
	C403.297638,286.578094 408.493134,286.752808 413.690735,287.143311 
	C414.945831,228.683914 357.462097,176.852249 306.830994,179.535995 
	C307.830322,198.536133 311.047516,217.145676 316.037720,236.324158 
M208.668854,132.030228 
	C208.042328,132.573486 207.484406,133.235611 206.779221,133.642578 
	C190.223587,143.197433 175.995529,155.410172 163.462112,169.883713 
	C150.347610,185.028275 139.223648,201.329681 131.039062,219.614029 
	C121.177330,241.645111 116.482292,264.891113 116.190758,288.878479 
	C116.060318,299.611145 117.817497,310.389648 119.040527,321.110535 
	C120.877640,337.214539 125.595726,352.659943 132.211548,367.309296 
	C143.586456,392.496613 159.481857,414.456879 180.786682,432.476807 
	C192.487427,442.373474 205.077377,450.824371 218.592072,457.727264 
	C235.239441,466.230133 253.003128,471.994629 271.516602,474.891541 
	C280.491882,476.295990 289.632324,476.645020 298.716278,477.473572 
	C298.716278,472.686218 298.716278,468.943787 298.716278,465.217346 
	C275.746735,464.450012 253.880417,460.173981 232.923019,451.095184 
	C212.085114,442.068176 193.766220,429.637543 177.867874,413.433838 
	C161.889862,397.148956 149.845322,378.475189 140.737885,357.531891 
	C131.646805,336.626160 131.466461,313.978607 126.218895,292.356323 
	C131.298004,263.105621 134.651764,233.426270 150.334320,207.105286 
	C166.104294,180.637543 186.994537,159.286224 213.273941,143.388840 
	C239.431183,127.565353 268.145905,120.298790 298.802795,119.754402 
	C298.802795,115.866585 298.802795,112.128227 298.802795,107.844414 
	C266.792206,108.358955 237.024124,116.060204 208.668854,132.030228 
M438.031769,415.633759 
	C448.973389,404.172302 457.622833,391.053955 464.923676,377.106079 
	C477.999268,352.125885 484.709229,325.292542 485.822540,297.224640 
	C486.243805,286.603088 485.540680,275.754761 483.800781,265.266815 
	C479.911163,241.820343 472.407806,219.535690 460.051117,198.986038 
	C445.544312,174.860703 426.982544,154.722183 403.620636,138.912888 
	C385.979767,126.975128 366.714508,118.693077 346.304382,113.217339 
	C331.977356,109.373604 317.299622,106.928665 301.890259,108.256409 
	C302.393005,112.230667 302.871582,116.013847 303.346771,119.770264 
	C334.072662,120.349449 362.735168,127.695068 388.946503,143.511200 
	C415.288849,159.406372 435.927002,180.977219 451.792542,207.313828 
	C467.544281,233.461502 470.813385,263.059540 475.936096,292.176605 
	C470.950958,321.467224 467.714020,351.289612 451.833740,377.456726 
	C435.864532,403.770355 415.241852,425.400574 388.523132,441.268860 
	C362.142975,456.936035 333.612854,464.133789 303.246887,465.243866 
	C303.246887,469.235016 303.246887,472.975250 303.246887,476.699005 
	C345.301239,478.125366 399.998718,457.966034 438.031769,415.633759 
z"/>
<path fill="#FFFFFF" opacity="1.000000" stroke="none" 
	d="
M81.195892,340.542450 
	C88.299263,346.132690 94.719162,352.310516 98.339165,360.832336 
	C99.916016,364.544342 98.679138,366.316132 94.849915,365.997406 
	C81.704964,364.903290 59.779697,347.020905 56.179760,334.400024 
	C55.919769,333.488556 56.065220,332.461395 55.964310,330.180237 
	C62.654968,332.168365 68.828995,334.002991 75.161865,335.884796 
	C70.628479,330.932526 65.822815,326.427155 61.941177,321.231445 
	C58.124001,316.121979 54.983444,310.410553 54.982788,302.607666 
	C58.154564,303.580780 61.124477,304.043396 63.663208,305.346191 
	C76.674339,312.023224 86.381302,321.938782 91.908417,335.598419 
	C92.593033,337.290375 92.039803,339.483215 92.060181,341.443939 
	C89.879417,341.336914 87.687813,341.324921 85.523003,341.078033 
	C84.603241,340.973083 83.739616,340.375885 82.348068,339.661896 
	C81.240799,339.200897 80.635956,339.080414 79.904404,338.598816 
	C78.625732,337.663818 77.473770,337.089874 76.321808,336.515930 
	C76.179741,336.927612 76.037682,337.339294 75.895622,337.750946 
	C77.320877,338.106293 78.746140,338.461639 80.104454,339.096710 
	C80.423637,339.765106 80.809761,340.153778 81.195892,340.542450 
z"/>
<path fill="#FFFFFF" opacity="1.000000" stroke="none" 
	d="
M63.888268,261.044739 
	C63.009354,255.859650 62.130440,250.674576 61.183247,245.086700 
	C76.882523,248.917847 92.111916,276.898590 87.386971,292.301514 
	C85.032234,291.353271 82.710960,290.418518 79.117287,288.971344 
	C84.136261,298.270081 90.532021,306.048584 88.812164,316.408569 
	C76.420403,318.632294 56.482742,291.698029 57.164001,272.442261 
	C62.375721,275.472565 67.120972,278.231628 72.750526,281.504852 
	C69.674133,275.462128 66.942879,270.097321 64.557892,264.373657 
	C65.902573,264.721222 67.226158,265.215912 67.846336,266.168549 
	C71.704651,272.095154 75.242523,278.236664 79.254723,284.053009 
	C80.504715,285.865082 82.896385,286.889648 85.044197,288.481293 
	C87.927193,276.513214 74.514359,252.101761 64.148300,250.270294 
	C64.274925,252.296082 64.512085,254.155823 64.471283,256.009430 
	C64.434258,257.691315 64.094536,259.366577 63.888268,261.044739 
M77.717354,288.026062 
	C77.832977,287.576935 77.980347,287.131561 78.034187,286.675140 
	C78.043579,286.595490 77.659172,286.469360 77.456665,286.364716 
	C77.329437,286.753906 77.202209,287.143127 77.717354,288.026062 
M74.945274,283.295563 
	C74.681961,282.889435 74.418648,282.483307 74.155334,282.077179 
	C74.208412,282.645844 74.261490,283.214478 74.945274,283.295563 
z"/>
<path fill="#FFFFFF" opacity="1.000000" stroke="none" 
	d="
M514.166748,280.999512 
	C518.215454,263.184418 530.177124,246.443787 539.823975,245.224319 
	C541.230591,258.437683 535.760071,269.687653 528.536438,281.914001 
	C534.738220,278.309601 539.559448,275.507507 545.191345,272.234314 
	C544.749817,284.234253 541.143738,293.888275 534.345398,301.892792 
	C529.841492,307.195770 523.987122,311.388245 518.516968,315.804962 
	C517.347107,316.749512 515.225769,316.515747 513.542786,316.824799 
	C513.280884,315.085480 512.573059,313.275848 512.834106,311.618958 
	C513.978210,304.358551 516.886414,297.810852 521.443115,291.999481 
	C521.999512,291.289856 522.134521,290.249847 522.748840,288.600403 
	C519.728882,289.919128 517.334106,290.964813 513.962646,292.437012 
	C513.675842,289.476318 513.426270,286.900360 513.790466,284.308441 
	C514.801941,285.428192 515.199707,286.563934 515.597534,287.699707 
	C517.364990,286.996002 519.514160,286.715729 520.839355,285.521332 
	C531.131653,276.244843 535.275085,263.839447 538.528320,249.902542 
	C536.744019,250.399597 535.372925,250.396927 534.557495,251.068756 
	C527.163147,257.161011 521.581055,264.474731 518.751587,273.843750 
	C517.963684,276.452606 515.734680,278.626221 514.166748,280.999512 
M525.371643,285.177063 
	C525.280823,285.763153 525.190002,286.349213 525.099121,286.935242 
	C525.382568,286.538300 525.666016,286.141357 525.371643,285.177063 
M528.086243,281.449585 
	C528.207031,281.845398 528.327881,282.241241 528.448730,282.637085 
	C528.652222,282.533905 529.036926,282.413910 529.029175,282.330383 
	C528.986267,281.868652 528.847717,281.415802 528.086243,281.449585 
z"/>
<path fill="#FFFFFF" opacity="1.000000" stroke="none" 
	d="
M406.169830,505.673859 
	C411.245148,510.809021 416.072632,515.670227 421.778778,521.416199 
	C404.826935,524.878723 392.060394,519.048584 380.004669,511.310242 
	C375.608765,508.488586 371.744507,504.589386 368.300415,500.608490 
	C365.227600,497.056763 366.806549,494.098755 371.499329,494.045563 
	C382.292969,493.923126 392.010101,497.692871 401.299469,502.805847 
	C402.847321,503.657776 404.381500,504.534576 406.169830,505.673859 
z"/>
<path fill="#FFFFFF" opacity="1.000000" stroke="none" 
	d="
M193.372437,522.271179 
	C189.371002,522.320007 185.746490,522.135437 181.900848,521.939575 
	C192.008011,503.094788 223.311142,488.291809 236.213287,496.536957 
	C225.988480,511.779419 211.688339,519.853516 193.372437,522.271179 
z"/>
<path fill="#FFFFFF" opacity="1.000000" stroke="none" 
	d="
M408.069977,502.006653 
	C402.704224,498.723846 397.587463,495.662872 392.845825,492.102264 
	C391.634491,491.192627 390.959595,488.565033 391.289032,486.988068 
	C391.482910,486.059906 394.103668,485.189758 395.690857,485.071594 
	C410.722504,483.952271 424.589935,487.628174 437.025116,496.092041 
	C440.484528,498.446655 443.250000,501.820831 447.055267,505.407196 
	C432.921783,510.321808 420.578003,507.543152 408.069977,502.006653 
z"/>
<path fill="#FFFFFF" opacity="1.000000" stroke="none" 
	d="
M193.506378,485.212463 
	C197.925537,485.018585 201.935944,484.807465 205.910446,485.094177 
	C207.633713,485.218475 210.262115,485.991791 210.707809,487.151276 
	C211.217285,488.476746 210.273499,491.133850 209.067535,492.221771 
	C200.389679,500.050751 190.143021,505.097229 178.637421,506.843597 
	C172.786530,507.731659 166.687302,507.091919 160.705612,506.938019 
	C159.094742,506.896576 157.503159,506.105499 155.432602,505.527222 
	C165.439880,492.943481 178.481445,487.704590 193.506378,485.212463 
z"/>
<path fill="#FFFFFF" opacity="1.000000" stroke="none" 
	d="
M135.121811,484.386261 
	C143.043442,477.849335 151.806168,473.878235 161.622452,473.121063 
	C169.360977,472.524170 177.193375,472.799500 184.961273,473.168030 
	C186.930008,473.261414 188.811783,475.187836 190.733505,476.271973 
	C189.291626,478.148956 188.239975,480.856323 186.336426,481.750946 
	C180.030197,484.714569 173.595581,487.738953 166.879761,489.419189 
	C156.696335,491.967041 146.373169,492.244904 136.199432,488.189758 
	C133.539810,487.129700 133.405640,486.600098 135.121811,484.386261 
z"/>
<path fill="#FFFFFF" opacity="1.000000" stroke="none" 
	d="
M412.022552,476.077942 
	C415.271271,474.450897 418.437073,472.403442 421.741760,472.147186 
	C436.798187,470.979614 451.209045,473.248138 463.994995,482.027496 
	C465.554779,483.098480 466.879700,484.511444 469.555389,486.852570 
	C463.584503,488.469574 458.959625,490.629120 454.253296,490.824219 
	C440.839874,491.380341 427.638306,489.939941 416.184265,481.927948 
	C414.395996,480.677032 413.377838,478.325134 412.022552,476.077942 
z"/>
<path fill="#FFFFFF" opacity="1.000000" stroke="none" 
	d="
M128.208328,471.998962 
	C122.745239,470.080933 117.719147,468.163818 111.791817,465.902954 
	C119.401077,459.498505 127.258438,456.537628 135.511612,456.225372 
	C144.274658,455.893738 153.159958,456.952087 161.874374,458.214508 
	C164.766510,458.633514 169.426819,461.434021 169.545944,463.374847 
	C169.794754,467.429108 165.113205,468.298615 161.700668,468.934784 
	C153.452713,470.472321 145.163483,471.846497 136.841599,472.895416 
	C134.189270,473.229767 131.381790,472.333191 128.208328,471.998962 
z"/>
<path fill="#FFFFFF" opacity="1.000000" stroke="none" 
	d="
M461.898132,456.000244 
	C472.219299,455.893982 480.961975,459.130493 490.595734,465.652222 
	C484.302094,468.042175 479.219666,470.511658 473.857300,471.899078 
	C461.753754,475.030609 449.973938,472.107056 438.434113,468.617157 
	C435.990875,467.878235 434.134918,465.197327 432.008362,463.411194 
	C434.513428,461.609802 436.820831,458.715088 439.561981,458.219513 
	C446.744995,456.920929 454.117340,456.669189 461.898132,456.000244 
z"/>
<path fill="#FFFFFF" opacity="1.000000" stroke="none" 
	d="
M451.711060,446.736908 
	C454.805481,444.601990 457.459045,442.317474 460.527588,440.998077 
	C473.447144,435.443085 486.802216,434.108978 500.436188,438.059174 
	C503.115601,438.835449 505.580566,440.351868 508.773041,441.815063 
	C501.253906,448.020508 493.076050,451.138672 484.447693,452.904388 
	C475.734070,454.687653 466.883911,454.157898 458.323517,451.837646 
	C455.788025,451.150452 453.735107,448.682922 451.711060,446.736908 
z"/>
<path fill="#FFFFFF" opacity="1.000000" stroke="none" 
	d="
M101.302505,438.009125 
	C113.808472,434.527649 125.786148,435.288147 137.577484,439.291473 
	C141.020355,440.460327 144.322021,442.158081 147.490875,443.960693 
	C148.624969,444.605804 150.063568,446.554993 149.792831,447.413940 
	C149.349121,448.821503 147.805145,450.509521 146.405273,450.884369 
	C138.628677,452.966675 130.865463,455.289001 122.601654,453.074188 
	C117.192055,451.624329 111.436569,451.291718 106.194931,449.441742 
	C101.788834,447.886658 97.901268,444.862396 93.025444,442.051117 
	C96.465302,440.289032 98.678436,439.155334 101.302505,438.009125 
z"/>
<path fill="#FFFFFF" opacity="1.000000" stroke="none" 
	d="
M500.242371,430.322754 
	C492.162201,431.397705 484.413300,432.549377 476.634186,432.814911 
	C473.801727,432.911591 470.897247,430.897034 468.025604,429.845673 
	C469.831421,427.586151 471.214783,424.684204 473.512756,423.173096 
	C486.772308,414.453888 506.107025,409.662415 522.882263,415.873871 
	C517.093262,423.738953 509.390442,427.720428 500.242371,430.322754 
z"/>
<path fill="#FFFFFF" opacity="1.000000" stroke="none" 
	d="
M94.395462,427.773651 
	C89.157188,424.343445 84.256935,421.113403 78.294548,417.183228 
	C85.248344,413.500580 91.252068,412.170593 96.976723,413.204041 
	C106.376045,414.900879 115.633781,417.605621 124.748833,420.518646 
	C127.522224,421.404938 130.018646,424.061218 131.953674,426.461639 
	C135.075714,430.334412 133.785553,432.700012 128.673248,432.978363 
	C117.030983,433.612274 105.599693,432.670807 94.395462,427.773651 
z"/>
<path fill="#FFFFFF" opacity="1.000000" stroke="none" 
	d="
M72.476898,388.000366 
	C89.675224,386.997711 104.170052,392.222839 116.290817,403.843109 
	C117.784401,405.275024 118.903267,407.097839 120.675819,409.349243 
	C118.905037,410.361786 117.475143,411.888580 116.043182,411.890533 
	C97.980064,411.915070 82.152794,406.419250 69.981575,392.440521 
	C67.567223,389.667603 67.591713,387.747192 72.476898,388.000366 
z"/>
<path fill="#FFFFFF" opacity="1.000000" stroke="none" 
	d="
M491.789307,398.711487 
	C503.387756,390.776520 515.769409,386.819702 529.566833,388.024109 
	C531.054199,388.153961 532.512878,388.612762 534.193542,388.962402 
	C524.948242,405.020752 493.182251,417.346008 481.010834,408.814209 
	C484.645142,405.417206 488.089355,402.197906 491.789307,398.711487 
z"/>
<path fill="#FFFFFF" opacity="1.000000" stroke="none" 
	d="
M516.218811,384.317627 
	C511.643921,385.884979 507.420044,387.485901 503.050964,388.366821 
	C500.193573,388.942932 497.125793,388.475555 494.118652,388.475555 
	C494.576172,375.891296 525.749939,355.481201 542.153076,360.453339 
	C537.099182,372.254303 527.681030,379.081696 516.218811,384.317627 
z"/>
<path fill="#FFFFFF" opacity="1.000000" stroke="none" 
	d="
M82.205353,363.674988 
	C95.696823,369.832153 104.303047,377.691681 107.930855,387.183563 
	C96.585197,393.769592 68.696754,378.476410 60.068214,360.937134 
	C65.045036,358.683960 65.045036,358.683960 82.205353,363.674988 
z"/>
<path fill="#FFFFFF" opacity="1.000000" stroke="none" 
	d="
M526.626099,336.898315 
	C532.487671,333.364929 538.821777,331.454529 546.146362,330.896820 
	C545.333435,337.935608 541.672058,343.028412 537.671692,347.710114 
	C530.245911,356.400574 520.388062,361.633911 509.840546,365.503967 
	C508.022339,366.171082 505.569458,365.108398 503.409790,364.844788 
	C503.874847,362.785248 503.724030,360.230774 504.912109,358.752228 
	C509.947815,352.485535 515.381226,346.538361 520.341797,340.210876 
	C520.014160,339.947266 519.910828,340.021576 520.197021,340.318726 
	C521.017334,340.054535 521.551514,339.493164 522.042480,338.965729 
	C521.999329,338.999634 521.912598,339.067047 522.292725,339.034637 
	C523.975098,338.338409 525.277405,337.674591 526.594971,336.958832 
	C526.610229,336.906860 526.626099,336.898315 526.626099,336.898315 
z"/>
<path fill="#FFFFFF" opacity="1.000000" stroke="none" 
	d="
M526.271118,336.555298 
	C526.626099,336.898315 526.610229,336.906860 526.332520,336.561157 
	C524.674072,337.165955 523.293335,338.116486 521.912598,339.067017 
	C521.912598,339.067047 521.999329,338.999634 521.700562,338.998077 
	C520.904785,339.338196 520.407776,339.679871 519.910828,340.021545 
	C519.910828,340.021576 520.014160,339.947266 520.059326,339.902283 
	C516.614380,340.776215 513.124207,341.695190 509.574371,342.629883 
	C507.368591,331.436554 528.150452,305.055969 546.648071,303.054077 
	C548.106262,308.999725 545.250732,313.983490 542.058105,318.161102 
	C537.460571,324.176941 531.793823,329.374756 526.603333,334.940247 
	C526.285278,335.281311 526.141174,335.784515 526.271118,336.555298 
z"/>
<path fill="#FFFFFF" opacity="1.000000" stroke="none" 
	d="
M72.249863,242.633209 
	C68.322830,230.350632 66.570801,219.514999 70.741943,214.083237 
	C86.368500,222.672333 94.014420,252.203522 87.983734,263.501312 
	C79.051552,259.421600 75.961418,251.040207 72.249863,242.633209 
z"/>
<path fill="#FFFFFF" opacity="1.000000" stroke="none" 
	d="
M512.000122,254.885773 
	C512.190308,238.093796 517.738220,224.281250 530.715454,213.772369 
	C538.516479,224.454254 527.082031,260.167603 513.021484,263.149261 
	C512.675964,260.513092 512.338074,257.934479 512.000122,254.885773 
z"/>
<path fill="#FFFFFF" opacity="1.000000" stroke="none" 
	d="
M87.706947,232.209320 
	C81.229256,220.455536 78.905296,208.149139 80.082291,195.224472 
	C80.363327,192.138397 81.667778,189.145523 82.708336,185.356720 
	C89.671257,191.620163 92.912773,198.797577 95.208275,206.604630 
	C97.669632,214.975800 97.995338,223.476791 96.855553,232.019043 
	C96.620667,233.779480 94.839050,235.333527 93.770340,236.982712 
	C91.841278,235.479874 89.912216,233.977020 87.706947,232.209320 
z"/>
<path fill="#FFFFFF" opacity="1.000000" stroke="none" 
	d="
M521.999878,204.914673 
	C521.346130,216.363892 519.129150,226.770523 511.314545,235.170105 
	C508.433990,238.266296 506.785645,237.760773 505.896790,233.574188 
	C502.435089,217.269363 505.675171,202.440140 515.534363,189.060150 
	C516.318237,187.996368 517.701477,187.374222 518.806152,186.546829 
	C519.382507,186.677856 519.958862,186.808884 520.535156,186.939911 
	C521.023376,192.771240 521.511597,198.602570 521.999878,204.914673 
z"/>
<path fill="#FFFFFF" opacity="1.000000" stroke="none" 
	d="
M503.335846,209.189072 
	C500.262024,213.518082 497.345856,213.733002 496.375732,209.461639 
	C494.624908,201.753082 493.096954,193.754120 493.265533,185.914917 
	C493.444214,177.606583 496.277130,169.537292 501.148895,162.484879 
	C501.588104,161.849075 502.284363,161.390854 503.308563,160.430908 
	C508.034851,170.572449 510.510132,180.581665 508.264618,191.278061 
	C507.017334,197.219788 505.181519,203.037964 503.335846,209.189072 
z"/>
<path fill="#FFFFFF" opacity="1.000000" stroke="none" 
	d="
M94.999191,170.124191 
	C95.980011,167.062027 96.958244,164.424149 97.993507,161.632477 
	C110.567093,169.797791 112.949135,203.476974 102.248192,212.953674 
	C94.930580,207.786957 89.954887,183.990173 94.999191,170.124191 
z"/>
<path fill="#FFFFFF" opacity="1.000000" stroke="none" 
	d="
M130.683395,164.664932 
	C124.438828,159.438736 125.554520,152.157303 126.218399,145.597107 
	C127.084953,137.034241 129.066833,128.479889 134.343063,121.237732 
	C136.149704,118.757950 138.167389,116.431931 140.201721,113.894646 
	C147.904861,126.987747 142.583817,154.976959 130.683395,164.664932 
z"/>
<path fill="#FFFFFF" opacity="1.000000" stroke="none" 
	d="
M474.800476,138.507904 
	C474.982666,145.398849 475.213165,151.896057 474.880737,158.364349 
	C474.763000,160.655334 473.273315,162.875809 472.317352,165.370087 
	C458.918457,155.635406 453.805695,123.779572 462.059113,114.839317 
	C469.632843,120.790222 472.032898,129.500290 474.800476,138.507904 
z"/>
<path fill="#FFFFFF" opacity="1.000000" stroke="none" 
	d="
M491.987183,152.353256 
	C493.179535,162.837814 494.498871,172.920563 490.967010,182.773132 
	C490.284180,184.677948 488.705994,186.261795 487.540833,187.993713 
	C485.872284,186.349075 483.445496,185.004913 482.655670,183.012009 
	C476.590485,167.708267 475.347534,152.361465 484.109650,135.625809 
	C487.056152,141.729187 489.516266,146.825089 491.987183,152.353256 
z"/>
<path fill="#FFFFFF" opacity="1.000000" stroke="none" 
	d="
M117.370171,138.239746 
	C119.121109,140.036713 121.276993,141.846664 121.859261,144.068909 
	C124.925652,155.772156 125.163361,167.517075 120.999519,179.086426 
	C120.463264,180.576416 119.937714,182.170898 118.985184,183.386200 
	C117.654083,185.084518 115.926025,186.471741 114.367821,187.992065 
	C113.157516,186.084320 111.284416,184.317902 110.842720,182.246292 
	C107.578064,166.934265 106.930016,151.897232 117.370171,138.239746 
z"/>
<path fill="#FFFFFF" opacity="1.000000" stroke="none" 
	d="
M155.270416,140.233215 
	C152.983429,142.072021 150.961670,143.654419 148.983002,145.203094 
	C141.236847,137.272675 151.919617,102.976517 166.153580,97.168114 
	C168.938599,113.164810 165.223251,127.277763 155.270416,140.233215 
z"/>
<path fill="#FFFFFF" opacity="1.000000" stroke="none" 
	d="
M445.678894,139.174652 
	C439.183350,129.548721 435.288025,119.253181 434.170074,108.089371 
	C433.838531,104.778458 435.144714,101.303543 435.727936,97.735619 
	C449.490540,103.500069 459.947601,132.848785 452.885834,145.583160 
	C450.493317,143.457535 448.222900,141.440399 445.678894,139.174652 
z"/>
<path fill="#FFFFFF" opacity="1.000000" stroke="none" 
	d="
M63.940132,261.413513 
	C64.094536,259.366577 64.434258,257.691315 64.471283,256.009430 
	C64.512085,254.155823 64.274925,252.296082 64.148300,250.270294 
	C74.514359,252.101761 87.927193,276.513214 85.044197,288.481293 
	C82.896385,286.889648 80.504715,285.865082 79.254723,284.053009 
	C75.242523,278.236664 71.704651,272.095154 67.846336,266.168549 
	C67.226158,265.215912 65.902573,264.721222 64.535469,264.007568 
	C64.108521,263.260986 64.050255,262.521637 63.940132,261.413513 
z"/>
<path fill="#FFFFFF" opacity="1.000000" stroke="none" 
	d="
M514.089355,281.363342 
	C515.734680,278.626221 517.963684,276.452606 518.751587,273.843750 
	C521.581055,264.474731 527.163147,257.161011 534.557495,251.068756 
	C535.372925,250.396927 536.744019,250.399597 538.528320,249.902542 
	C535.275085,263.839447 531.131653,276.244843 520.839355,285.521332 
	C519.514160,286.715729 517.364990,286.996002 515.597534,287.699707 
	C515.199707,286.563934 514.801941,285.428192 514.148193,284.122192 
	C513.932129,283.210358 513.972046,282.468750 514.089355,281.363342 
z"/>
<path fill="#FFFFFF" opacity="1.000000" stroke="none" 
	d="
M399.915192,118.017700 
	C399.026489,117.714935 398.543823,117.430290 398.061157,117.145645 
	C398.448090,116.771446 398.959076,116.008995 399.201721,116.086533 
	C400.696686,116.564156 402.131134,117.231270 403.585693,117.835365 
	C403.424561,118.230751 403.263397,118.626129 403.102234,119.021507 
	C402.175232,118.692947 401.248230,118.364380 399.915192,118.017700 
z"/>
<path fill="#000000" opacity="1.000000" stroke="none" 
	d="
M324.276367,23.657269 
	C327.126648,33.694538 329.732971,44.042080 332.487396,54.977737 
	C326.990601,54.513210 322.188965,54.107430 317.054230,53.673500 
	C319.384186,43.754875 321.708282,33.861206 324.276367,23.657269 
z"/>
<path fill="#000000" opacity="1.000000" stroke="none" 
	d="
M403.766968,218.358704 
	C399.510681,213.336166 395.811554,208.253235 391.342072,203.975067 
	C374.759155,188.102005 355.639008,176.218140 333.356079,170.328125 
	C324.320129,167.939651 314.761261,167.529556 305.295288,166.198837 
	C304.513641,153.203018 303.708038,139.809097 302.869202,125.862885 
	C342.658844,125.418907 377.071167,138.977585 406.776031,163.574753 
	C450.298340,199.613480 466.447388,245.059601 467.969086,290.672272 
	C454.369446,289.481598 440.915955,288.303711 427.220825,287.104675 
	C425.311584,262.094421 418.159302,239.165176 403.766968,218.358704 
z"/>
<path fill="#000000" opacity="1.000000" stroke="none" 
	d="
M139.700729,249.702515 
	C158.147583,178.345673 226.895660,124.299774 298.995728,126.099091 
	C298.995728,129.472031 299.183289,132.893845 298.958649,136.288391 
	C298.406860,144.625763 297.492279,152.941986 297.076965,161.284286 
	C296.885132,165.137802 296.167297,167.016800 291.566803,167.139450 
	C277.228210,167.521667 263.662811,171.404251 250.382599,176.832184 
	C235.410873,182.951431 222.605362,192.207336 211.331070,203.398041 
	C198.006348,216.623978 187.571671,232.098022 182.148346,250.258530 
	C178.614487,262.092072 176.385620,274.315338 173.466949,286.814545 
	C161.561569,288.103729 148.491898,289.518951 135.273895,290.950256 
	C133.960388,276.899261 136.347412,263.434967 139.700729,249.702515 
z"/>
<path fill="#000000" opacity="1.000000" stroke="none" 
	d="
M134.999588,301.061493 
	C134.999588,298.591217 134.999588,296.607117 134.999588,293.803772 
	C148.429047,295.221741 161.589355,296.611298 174.674271,297.992889 
	C178.972244,367.543182 233.681625,416.252930 296.636414,418.084564 
	C297.266022,431.484833 297.897278,444.920166 298.573151,459.305420 
	C291.419037,458.816925 283.891632,458.808838 276.531952,457.693787 
	C261.713898,455.448914 247.132263,451.729584 233.795914,444.851929 
	C221.693008,438.610352 210.140701,431.252258 198.622421,423.949860 
	C193.973251,421.002350 189.797729,417.160126 185.854767,413.270782 
	C163.753571,391.470276 147.886948,365.812988 140.195999,335.652710 
	C137.368301,324.563721 136.669464,312.931885 134.999588,301.061493 
z"/>
<path fill="#000000" opacity="1.000000" stroke="none" 
	d="
M390.750916,380.748474 
	C413.480133,357.789703 425.642426,330.520691 427.321838,298.030792 
	C440.237183,296.638184 453.315338,295.228058 466.404785,293.816681 
	C472.004303,372.174622 397.830658,460.011261 303.604553,458.762238 
	C304.164520,445.316467 304.723358,431.897827 305.284302,418.428284 
	C338.934570,416.618317 367.329376,404.685791 390.750916,380.748474 
z"/>
<path fill="#000000" opacity="1.000000" stroke="none" 
	d="
M330.613770,402.747284 
	C322.755737,404.234955 315.263672,405.503632 306.811615,406.934906 
	C307.267975,399.809174 307.209869,393.749664 308.132263,387.843262 
	C309.775543,377.320770 311.648773,366.805237 314.092651,356.444061 
	C317.088257,343.743622 320.460815,331.094635 330.130066,321.339447 
	C340.435791,310.942139 353.374695,305.610138 367.324463,303.165283 
	C382.652313,300.478851 398.205017,299.075439 413.908783,297.081390 
	C414.590057,309.868134 411.761444,321.653137 407.398041,333.063141 
	C401.044373,349.677460 391.291260,364.191772 378.188324,376.184906 
	C364.589447,388.631927 349.113220,398.045258 330.613770,402.747284 
z"/>
<path fill="#000000" opacity="1.000000" stroke="none" 
	d="
M214.280365,365.782898 
	C202.743469,352.523621 195.000427,337.652832 191.063934,320.917023 
	C189.264542,313.266998 188.163773,305.452667 186.688522,297.398193 
	C192.502945,297.968231 197.755432,298.580780 203.024017,298.981842 
	C220.494003,300.311859 237.921326,302.289886 254.183472,309.146454 
	C270.195038,315.897308 280.596741,328.242126 284.868286,345.092712 
	C287.794220,356.635010 289.833435,368.414703 291.944458,380.146698 
	C293.440887,388.463013 294.395111,396.876862 295.670959,405.804138 
	C285.875092,406.599884 277.270721,404.449127 268.748413,401.986908 
	C248.103363,396.022278 231.059113,384.294373 216.388245,368.862579 
	C215.625519,368.060303 215.151535,366.983551 214.280365,365.782898 
z"/>
<path fill="#000000" opacity="1.000000" stroke="none" 
	d="
M206.261841,285.020782 
	C200.035294,285.803589 194.271393,286.568878 188.460892,287.340363 
	C186.426437,233.328003 238.892105,178.274139 295.415649,179.372269 
	C294.605743,186.845566 294.234131,194.335434 292.904053,201.651016 
	C290.572388,214.475128 288.256378,227.355865 284.851379,239.919556 
	C278.224854,264.370178 260.319336,276.369965 236.632919,280.910431 
	C226.764542,282.802124 216.699890,283.669952 206.261841,285.020782 
z"/>
<path fill="#000000" opacity="1.000000" stroke="none" 
	d="
M316.018555,235.904266 
	C311.047516,217.145676 307.830322,198.536133 306.830994,179.535995 
	C357.462097,176.852249 414.945831,228.683914 413.690735,287.143311 
	C408.493134,286.752808 403.297638,286.578094 398.162018,285.929230 
	C388.990173,284.770386 379.843811,283.394684 370.706146,281.984100 
	C356.479370,279.787964 343.080536,275.252808 332.209137,265.536346 
	C324.221130,258.396942 319.309326,249.099716 316.976868,238.546799 
	C316.806152,237.774460 316.357239,237.063614 316.018555,235.904266 
z"/>
<path fill="#000000" opacity="1.000000" stroke="none" 
	d="
M209.046234,131.996170 
	C237.024124,116.060204 266.792206,108.358955 298.802795,107.844414 
	C298.802795,112.128227 298.802795,115.866585 298.802795,119.754402 
	C268.145905,120.298790 239.431183,127.565353 213.273941,143.388840 
	C186.994537,159.286224 166.104294,180.637543 150.334320,207.105286 
	C134.651764,233.426270 131.298004,263.105621 126.218895,292.356323 
	C131.466461,313.978607 131.646805,336.626160 140.737885,357.531891 
	C149.845322,378.475189 161.889862,397.148956 177.867874,413.433838 
	C193.766220,429.637543 212.085114,442.068176 232.923019,451.095184 
	C253.880417,460.173981 275.746735,464.450012 298.716278,465.217346 
	C298.716278,468.943787 298.716278,472.686218 298.716278,477.473572 
	C289.632324,476.645020 280.491882,476.295990 271.516602,474.891541 
	C253.003128,471.994629 235.239441,466.230133 218.592072,457.727264 
	C205.077377,450.824371 192.487427,442.373474 180.786682,432.476807 
	C159.481857,414.456879 143.586456,392.496613 132.211548,367.309296 
	C125.595726,352.659943 120.877640,337.214539 119.040527,321.110535 
	C117.817497,310.389648 116.060318,299.611145 116.190758,288.878479 
	C116.482292,264.891113 121.177330,241.645111 131.039062,219.614029 
	C139.223648,201.329681 150.347610,185.028275 163.462112,169.883713 
	C175.995529,155.410172 190.223587,143.197433 206.779221,133.642578 
	C207.484406,133.235611 208.042328,132.573486 209.046234,131.996170 
z"/>
<path fill="#000000" opacity="1.000000" stroke="none" 
	d="
M438.001160,415.992615 
	C399.998718,457.966034 345.301239,478.125366 303.246887,476.699005 
	C303.246887,472.975250 303.246887,469.235016 303.246887,465.243866 
	C333.612854,464.133789 362.142975,456.936035 388.523132,441.268860 
	C415.241852,425.400574 435.864532,403.770355 451.833740,377.456726 
	C467.714020,351.289612 470.950958,321.467224 475.936096,292.176605 
	C470.813385,263.059540 467.544281,233.461502 451.792542,207.313828 
	C435.927002,180.977219 415.288849,159.406372 388.946503,143.511200 
	C362.735168,127.695068 334.072662,120.349449 303.346771,119.770264 
	C302.871582,116.013847 302.393005,112.230667 301.890259,108.256409 
	C317.299622,106.928665 331.977356,109.373604 346.304382,113.217339 
	C366.714508,118.693077 385.979767,126.975128 403.620636,138.912888 
	C426.982544,154.722183 445.544312,174.860703 460.051117,198.986038 
	C472.407806,219.535690 479.911163,241.820343 483.800781,265.266815 
	C485.540680,275.754761 486.243805,286.603088 485.822540,297.224640 
	C484.709229,325.292542 477.999268,352.125885 464.923676,377.106079 
	C457.622833,391.053955 448.973389,404.172302 438.001160,415.992615 
z"/>
<path fill="#000000" opacity="1.000000" stroke="none" 
	d="
M80.171394,338.816986 
	C78.746140,338.461639 77.320877,338.106293 75.895622,337.750946 
	C76.037682,337.339294 76.179741,336.927612 76.321808,336.515930 
	C77.473770,337.089874 78.625732,337.663818 79.937973,338.565369 
	C80.098244,338.893005 80.171394,338.816986 80.171394,338.816986 
z"/>
<path fill="#000000" opacity="1.000000" stroke="none" 
	d="
M81.423363,340.397827 
	C80.809761,340.153778 80.423637,339.765106 80.104454,339.096710 
	C80.171394,338.816986 80.098244,338.893005 80.064682,338.926453 
	C80.635956,339.080414 81.240799,339.200897 81.959244,339.619507 
	C81.932175,340.029449 81.791512,340.141296 81.423363,340.397827 
z"/>
<path fill="#000000" opacity="1.000000" stroke="none" 
	d="
M77.396164,287.779175 
	C77.202209,287.143127 77.329437,286.753906 77.456665,286.364716 
	C77.659172,286.469360 78.043579,286.595490 78.034187,286.675140 
	C77.980347,287.131561 77.832977,287.576935 77.396164,287.779175 
z"/>
<path fill="#000000" opacity="1.000000" stroke="none" 
	d="
M74.629921,283.539368 
	C74.261490,283.214478 74.208412,282.645844 74.155334,282.077179 
	C74.418648,282.483307 74.681961,282.889435 74.629921,283.539368 
z"/>
<path fill="#000000" opacity="1.000000" stroke="none" 
	d="
M525.660522,285.460724 
	C525.666016,286.141357 525.382568,286.538300 525.099121,286.935242 
	C525.190002,286.349213 525.280823,285.763153 525.660522,285.460724 
z"/>
<path fill="#000000" opacity="1.000000" stroke="none" 
	d="
M528.414124,281.204742 
	C528.847717,281.415802 528.986267,281.868652 529.029175,282.330383 
	C529.036926,282.413910 528.652222,282.533905 528.448730,282.637085 
	C528.327881,282.241241 528.207031,281.845398 528.414124,281.204742 
z"/>
<path fill="#000000" opacity="1.000000" stroke="none" 
	d="
M522.292725,339.034607 
	C523.293335,338.116486 524.674072,337.165955 526.317261,336.613098 
	C525.277405,337.674591 523.975098,338.338409 522.292725,339.034607 
z"/>
<path fill="#000000" opacity="1.000000" stroke="none" 
	d="
M520.197021,340.318726 
	C520.407776,339.679871 520.904785,339.338196 521.743713,338.964172 
	C521.551514,339.493164 521.017334,340.054535 520.197021,340.318726 
z"/>
</svg>